HIERARCHY
ROOT Hips
{
    OFFSET   0.000000   0.000000   0.000000
    CHANNELS 6 Xposition Yposition Zposition Zrotation Xrotation Yrotation
    JOINT Chest
    {
        OFFSET   0.000000   8.007230   0.000000
        CHANNELS 3 Zrotation Xrotation Yrotation
        JOINT Chest2
        {
            OFFSET   0.000000  22.077100   0.000000
            CHANNELS 3 Zrotation Xrotation Yrotation
            JOINT Neck
            {
                OFFSET   0.000000  23.254800  -0.000021
                CHANNELS 3 Zrotation Xrotation Yrotation
                JOINT Head
                {
                    OFFSET   0.000000  14.370000   1.956610
                    CHANNELS 3 Zrotation Xrotation Yrotation
                    End Site
                    {
                        OFFSET   0.000000  19.566000   0.000000
                    }
                }
            }
            JOINT LeftCollar
            {
                OFFSET   3.911900  19.017000  -0.467063
                CHANNELS 3 Zrotation Xrotation Yrotation
                JOINT LeftShoulder
                {
                    OFFSET  10.383700   0.000000   0.000000
                    CHANNELS 3 Zrotation Xrotation Yrotation
                    JOINT LeftElbow
                    {
                        OFFSET  26.662100   0.001529   0.000325
                        CHANNELS 3 Zrotation Xrotation Yrotation
                        JOINT LeftWrist
                        {
                            OFFSET  28.869000  -0.000011  -0.000096
                            CHANNELS 3 Zrotation Xrotation Yrotation
                            JOINT LeftFinger0
                            {
                                OFFSET   2.044650  -2.323460   3.252850
                                CHANNELS 3 Zrotation Xrotation Yrotation
                                JOINT LeftFinger01
                                {
                                    OFFSET   3.088130   0.000000   0.000000
                                    CHANNELS 3 Zrotation Xrotation Yrotation
                                    JOINT LeftFinger02
                                    {
                                        OFFSET   2.639460   0.000000   0.000000
                                        CHANNELS 3 Zrotation Xrotation Yrotation
                                        End Site
                                        {
                                            OFFSET   2.582190   0.000000   0.000000
                                        }
                                    }
                                }
                            }
                            JOINT LeftFinger1
                            {
                                OFFSET   8.364480   0.000000   3.252850
                                CHANNELS 3 Zrotation Xrotation Yrotation
                                JOINT LeftFinger11
                                {
                                    OFFSET   4.646930   0.000000   0.000000
                                    CHANNELS 3 Zrotation Xrotation Yrotation
                                    JOINT LeftFinger12
                                    {
                                        OFFSET   2.323460   0.000000   0.000000
                                        CHANNELS 3 Zrotation Xrotation Yrotation
                                        End Site
                                        {
                                            OFFSET   2.273050   0.000000   0.000000
                                        }
                                    }
                                }
                            }
                            JOINT LeftFinger2
                            {
                                OFFSET   8.364480   0.000016   1.078090
                                CHANNELS 3 Zrotation Xrotation Yrotation
                                JOINT LeftFinger21
                                {
                                    OFFSET   5.111620   0.000000   0.000000
                                    CHANNELS 3 Zrotation Xrotation Yrotation
                                    JOINT LeftFinger22
                                    {
                                        OFFSET   2.788160   0.000017   0.000000
                                        CHANNELS 3 Zrotation Xrotation Yrotation
                                        End Site
                                        {
                                            OFFSET   2.727660   0.000000   0.000000
                                        }
                                    }
                                }
                            }
                            JOINT LeftFinger3
                            {
                                OFFSET   7.899780   0.000015  -1.078090
                                CHANNELS 3 Zrotation Xrotation Yrotation
                                JOINT LeftFinger31
                                {
                                    OFFSET   4.646920   0.000000   0.000000
                                    CHANNELS 3 Zrotation Xrotation Yrotation
                                    JOINT LeftFinger32
                                    {
                                        OFFSET   2.323470   0.000000   0.000000
                                        CHANNELS 3 Zrotation Xrotation Yrotation
                                        End Site
                                        {
                                            OFFSET   2.273050   0.000000   0.000000
                                        }
                                    }
                                }
                            }
                            JOINT LeftFinger4
                            {
                                OFFSET   7.435090   0.000000  -3.252850
                                CHANNELS 3 Zrotation Xrotation Yrotation
                                JOINT LeftFinger41
                                {
                                    OFFSET   3.717550   0.000000   0.000000
                                    CHANNELS 3 Zrotation Xrotation Yrotation
                                    JOINT LeftFinger42
                                    {
                                        OFFSET   1.858760   0.000000   0.000000
                                        CHANNELS 3 Zrotation Xrotation Yrotation
                                        End Site
                                        {
                                            OFFSET   1.818440   0.000000   0.000000
                                        }
                                    }
                                }
                            }
                        }
                    }
                }
            }
            JOINT RightCollar
            {
                OFFSET  -3.911900  19.017000  -0.467062
                CHANNELS 3 Zrotation Xrotation Yrotation
                JOINT RightShoulder
                {
                    OFFSET -10.383700   0.000015   0.000000
                    CHANNELS 3 Zrotation Xrotation Yrotation
                    JOINT RightElbow
                    {
                        OFFSET -26.662100   0.001341   0.000385
                        CHANNELS 3 Zrotation Xrotation Yrotation
                        JOINT RightWrist
                        {
                            OFFSET -28.869000   0.000025  -0.000080
                            CHANNELS 3 Zrotation Xrotation Yrotation
                            JOINT RightFinger0
                            {
                                OFFSET  -2.044650  -2.323490   3.252850
                                CHANNELS 3 Zrotation Xrotation Yrotation
                                JOINT RightFinger01
                                {
                                    OFFSET  -3.088130   0.000000   0.000000
                                    CHANNELS 3 Zrotation Xrotation Yrotation
                                    JOINT RightFinger02
                                    {
                                        OFFSET  -2.639460   0.000000   0.000000
                                        CHANNELS 3 Zrotation Xrotation Yrotation
                                        End Site
                                        {
                                            OFFSET  -2.582190   0.000000   0.000000
                                        }
                                    }
                                }
                            }
                            JOINT RightFinger1
                            {
                                OFFSET  -8.364480   0.000000   3.252850
                                CHANNELS 3 Zrotation Xrotation Yrotation
                                JOINT RightFinger11
                                {
                                    OFFSET  -4.646930   0.000000   0.000000
                                    CHANNELS 3 Zrotation Xrotation Yrotation
                                    JOINT RightFinger12
                                    {
                                        OFFSET  -2.323470   0.000000   0.000000
                                        CHANNELS 3 Zrotation Xrotation Yrotation
                                        End Site
                                        {
                                            OFFSET  -2.273050   0.000000   0.000000
                                        }
                                    }
                                }
                            }
                            JOINT RightFinger2
                            {
                                OFFSET  -8.364480   0.000000   1.078090
                                CHANNELS 3 Zrotation Xrotation Yrotation
                                JOINT RightFinger21
                                {
                                    OFFSET  -5.111610   0.000000   0.000000
                                    CHANNELS 3 Zrotation Xrotation Yrotation
                                    JOINT RightFinger22
                                    {
                                        OFFSET  -2.788160   0.000000   0.000000
                                        CHANNELS 3 Zrotation Xrotation Yrotation
                                        End Site
                                        {
                                            OFFSET  -2.727660   0.000000   0.000000
                                        }
                                    }
                                }
                            }
                            JOINT RightFinger3
                            {
                                OFFSET  -7.899780   0.000000  -1.078090
                                CHANNELS 3 Zrotation Xrotation Yrotation
                                JOINT RightFinger31
                                {
                                    OFFSET  -4.646920   0.000000   0.000000
                                    CHANNELS 3 Zrotation Xrotation Yrotation
                                    JOINT RightFinger32
                                    {
                                        OFFSET  -2.323470   0.000000   0.000000
                                        CHANNELS 3 Zrotation Xrotation Yrotation
                                        End Site
                                        {
                                            OFFSET  -2.273050   0.000000   0.000000
                                        }
                                    }
                                }
                            }
                            JOINT RightFinger4
                            {
                                OFFSET  -7.435090   0.000000  -3.252850
                                CHANNELS 3 Zrotation Xrotation Yrotation
                                JOINT RightFinger41
                                {
                                    OFFSET  -3.717550   0.000000   0.000000
                                    CHANNELS 3 Zrotation Xrotation Yrotation
                                    JOINT RightFinger42
                                    {
                                        OFFSET  -1.858770   0.000000   0.000000
                                        CHANNELS 3 Zrotation Xrotation Yrotation
                                        End Site
                                        {
                                            OFFSET  -1.818440   0.000000   0.000000
                                        }
                                    }
                                }
                            }
                        }
                    }
                }
            }
        }
    }
    JOINT LeftHip
    {
        OFFSET   9.783010   0.000000   0.000000
        CHANNELS 3 Zrotation Xrotation Yrotation
        JOINT LeftKnee
        {
            OFFSET   0.000070 -41.789100   0.000028
            CHANNELS 3 Zrotation Xrotation Yrotation
            JOINT LeftAnkle
            {
                OFFSET   0.000087 -41.133200  -0.000100
                CHANNELS 3 Zrotation Xrotation Yrotation
                JOINT LeftToe
                {
                    OFFSET   0.000000  -6.358960  14.674500
                    CHANNELS 3 Zrotation Xrotation Yrotation
                    End Site
                    {
                        OFFSET   0.000000   0.000000   3.913200
                    }
                }
            }
        }
    }
    JOINT RightHip
    {
        OFFSET  -9.783020   0.000000   0.000000
        CHANNELS 3 Zrotation Xrotation Yrotation
        JOINT RightKnee
        {
            OFFSET   0.000044 -41.789100  -0.000870
            CHANNELS 3 Zrotation Xrotation Yrotation
            JOINT RightAnkle
            {
                OFFSET  -0.000090 -41.133200  -0.000245
                CHANNELS 3 Zrotation Xrotation Yrotation
                JOINT RightToe
                {
                    OFFSET   0.000000  -6.358960  14.674500
                    CHANNELS 3 Zrotation Xrotation Yrotation
                    End Site
                    {
                        OFFSET   0.000000   0.000000   3.913200
                    }
                }
            }
        }
    }
}
MOTION
Frames: 6
Frame Time:   0.016667
 -0.527997  89.974700  -0.506984  -0.953887  -1.201080  -0.920195  -0.953357   0.878832   0.063341  -1.908040   1.756490   0.141325  15.785500   3.644240  -1.029500  26.135600   5.731550  -1.726200  -1.603970   0.054398   3.537650 -77.705900  14.375500   2.237770  -2.550820  -7.345350 -16.225600  14.296700   2.002810   9.222840  42.922600  33.359700 -70.146100 -23.620400  -0.014532   0.043582  -6.810200  -0.009181   0.021647 -31.461600   7.680330 -12.320700 -26.421100  -0.104468   0.005467 -18.494800  -0.072830  -0.000653 -28.682800   2.508930  -4.574560 -41.470500  -0.106798   0.006677 -27.619400  -0.070268  -0.013227 -27.597000   2.421530  -4.620900 -30.200400  -0.119104   0.004005 -20.113400  -0.078539  -0.014047 -29.361000   1.350400  -2.398570 -44.085000  -0.139220  -0.039007 -29.360700  -0.079950  -0.053783   8.291860   1.727130   1.839870  73.607400   7.833660  -2.644750   1.530090  -1.992490  14.052600 -17.120100 -13.108100   4.144780 -37.980800  34.845000  71.512100  31.923600   0.001763  -0.001039  10.961800   0.002413   0.002241  32.474000   1.840220   2.888430  26.607700  -0.000450  -0.000492  18.625400  -0.001674  -0.000187  28.122400  -1.086700  -2.032480  32.973300  -0.002411  -0.002508  21.960200  -0.006807  -0.004795  28.560200  -1.706890  -3.132460  37.488200   0.000420   0.000795  24.967100   0.000415   0.000505  40.150200  -2.301730  -2.725760  60.307700  -0.004107  -0.010364  40.165000   0.000760  -0.000784   1.275540   2.780500   1.625970   0.992245   0.414023  13.919600  -6.274910  -3.377550   6.301820   0.000000   0.000000   0.000000   1.575940   3.169060  -9.722290   0.011515   1.060070  -8.404520  -9.574180   0.591007   1.801060   0.000000   0.000000   0.000000
 -0.498549  89.975700  -0.483968  -0.966421  -1.178110  -0.921318  -0.860529   0.862013  -0.070164  -1.720270   1.724430  -0.127380  16.212100   3.897810  -1.128720  26.869400   6.045860  -1.977420  -1.565390   0.168745   4.031470 -77.888600  14.660500   2.108540  -2.669120  -7.454990 -16.138600  14.170800   2.408120   9.175880  43.256400  33.722200 -70.539700 -23.520800  -0.014751   0.050972  -6.760440  -0.010533   0.025164 -31.261200   7.689780 -12.431900 -26.264100  -0.087771   0.013732 -18.384900  -0.062388  -0.000584 -28.668500   2.548750  -4.649460 -41.017900  -0.081639   0.015815 -27.317900  -0.055612  -0.003574 -27.527600   2.456180  -4.698530 -29.854700  -0.080017   0.015717 -19.883200  -0.054776   0.000193 -29.107900   1.390380  -2.496080 -43.708300  -0.107331  -0.023629 -29.109800  -0.062503  -0.038500   8.136270   1.683790   2.087640  73.449300   7.829170  -2.634920   1.449370  -1.954990  14.116100 -17.199400 -13.145600   4.150410 -37.921300  34.719400  71.376200  31.930400   0.001728  -0.001035  10.965200   0.002391   0.002220  32.478800   1.833190   2.877140  26.611100  -0.000436  -0.000532  18.627800  -0.001704  -0.000151  28.129400  -1.094420  -2.046540  33.027000  -0.002501  -0.002497  21.996000  -0.006912  -0.004772  28.561900  -1.714610  -3.146510  37.525100   0.000364   0.000863  24.991700   0.000345   0.000533  40.181900  -2.313170  -2.737110  60.356100  -0.004200  -0.010538  40.197200   0.000659  -0.000799   1.290900   2.815190   1.647580   0.988441   0.346616  13.909400  -6.276100  -3.367950   6.300640   0.000000   0.000000   0.000000   1.594320   3.172550  -9.710490   0.011029   1.045280  -8.404020  -9.569950   0.585316   1.785860  -0.000000   0.000000  -0.000000
 -0.471294  89.980600  -0.451991  -0.970684  -1.154490  -0.929228  -0.748211   0.836362  -0.202374  -1.493700   1.675300  -0.393872  16.379300   4.102630  -1.204040  27.166500   6.313020  -2.216000  -1.556490   0.283103   4.477510 -78.036300  14.969500   1.980560  -2.784070  -7.476650 -15.964600  14.049300   3.066830   9.092830  43.433100  33.941900 -70.704200 -23.470700  -0.015154   0.053488  -6.735390  -0.011821   0.027029 -31.064300   7.705490 -12.548500 -26.110900  -0.055951   0.019201 -18.277600  -0.041246  -0.000519 -28.649800   2.621000  -4.784870 -40.565500  -0.056480   0.024470 -27.016600  -0.040957   0.003661 -27.453300   2.520210  -4.838310 -29.504300  -0.040930   0.027102 -19.649800  -0.031014   0.010438 -28.842800   1.432120  -2.598690 -43.313700  -0.075443  -0.008252 -28.847000  -0.045057  -0.023217   7.998560   1.646680   2.290300  73.255600   7.802920  -2.602430   1.373380  -1.926360  14.174700 -17.324100 -13.218400   4.156650 -37.865000  34.624900  71.238000  31.960400   0.001691  -0.001017  10.980200   0.002371   0.002198  32.491200   1.812330   2.842690  26.620700  -0.000422  -0.000572  18.634500  -0.001733  -0.000111  28.138600  -1.117490  -2.088730  33.100800  -0.002591  -0.002486  22.045100  -0.007018  -0.004747  28.564200  -1.736990  -3.187130  37.580900   0.000306   0.000930  25.028900   0.000273   0.000560  40.224700  -2.345620  -2.770490  60.422600  -0.004296  -0.010707  40.241500   0.000559  -0.000814   1.305340   2.851670   1.660110   0.970464   0.279325  13.905300  -6.277260  -3.361950   6.299700   0.000000   0.000000  -0.000000   1.601390   3.178490  -9.688430   0.009294   1.021990  -8.403830  -9.562410   0.582411   1.767110   0.000000   0.000000   0.000000
 -0.451734  89.991300  -0.417225  -0.969728  -1.134040  -0.946983  -0.630152   0.817867  -0.319921  -1.255900   1.639190  -0.630905  16.390700   4.255950  -1.252300  27.200800   6.536570  -2.455930  -1.595900   0.392870   4.843160 -78.139900  15.226900   1.854040  -2.823500  -7.317580 -15.766100  14.083600   3.654810   8.993330  43.415500  33.959700 -70.600700 -23.534500  -0.016888   0.052228  -6.767300  -0.013042   0.027862 -30.937200   7.716340 -12.626500 -26.012000  -0.012161   0.006021 -18.208300  -0.008887  -0.000407 -28.634100   2.696110  -4.924690 -40.225200  -0.092507   0.030707 -26.790000  -0.063712  -0.005457 -27.397000   2.589160  -4.981520 -29.246300  -0.072277   0.035563 -19.478000  -0.052156   0.004924 -28.623800   1.466270  -2.684310 -42.987500  -0.096183  -0.011984 -28.629800  -0.054883  -0.033509   7.903690   1.620240   2.443900  73.038500   7.720300  -2.538510   1.284290  -1.896060  14.240300 -17.510100 -13.381200   4.151260 -37.794100  34.566100  71.120700  32.024900   0.001658  -0.000962  11.012500   0.002347   0.002158  32.526100   1.774670   2.779870  26.647900  -0.000404  -0.000611  18.653500  -0.001765  -0.000044  28.151600  -1.159040  -2.165040  33.207800  -0.002686  -0.002468  22.116400  -0.007120  -0.004724  28.568500  -1.776200  -3.258220  37.675000   0.000243   0.000997  25.091600   0.000201   0.000587  40.284700  -2.401210  -2.829970  60.516400  -0.004391  -0.010871  40.304000   0.000459  -0.000827   1.323280   2.884490   1.647350   0.945295   0.229075  13.928800  -6.278190  -3.367880   6.302850   0.000000   0.000000  -0.000000   1.596570   3.182630  -9.665490   0.006983   1.006800  -8.403680  -9.555150   0.579247   1.761220   0.000000   0.000000  -0.000000
 -0.442822  90.006100  -0.383564  -0.966838  -1.117070  -0.977109  -0.522517   0.808197  -0.413448  -1.039330   1.620100  -0.819619  16.394200   4.324270  -1.270440  27.219700   6.649540  -2.681370  -1.649190   0.452822   5.035660 -78.173000  15.465600   1.731860  -2.802350  -7.048330 -15.545900  14.227200   4.107710   8.931780  43.325500  33.872000 -70.387900 -23.667600  -0.019829   0.050967  -6.833820  -0.014189   0.028114 -30.882500   7.721990 -12.661800 -25.969500   0.016507  -0.007627 -18.178600   0.012771  -0.000266 -28.620700   2.768350  -5.058630 -40.061000  -0.128535   0.033581 -26.680700  -0.086467  -0.016671 -27.364600   2.656670  -5.118100 -29.122900  -0.115567   0.042592 -19.395900  -0.081668  -0.002435 -28.511000   1.483750  -2.728660 -42.819500  -0.124678  -0.015716 -28.517900  -0.068545  -0.047470   7.863170   1.591200   2.514950  72.829900   7.659610  -2.463470   1.199020  -1.879570  14.309800 -17.707100 -13.579900   4.142460 -37.754700  34.537500  71.065100  32.109200   0.001627  -0.000922  11.054600   0.002322   0.002118  32.589300   1.729610   2.703090  26.697600  -0.000386  -0.000653  18.688300  -0.001797  -0.000000  28.168600  -1.209560  -2.257570  33.349900  -0.002782  -0.002449  22.211000  -0.007222  -0.004699  28.574800  -1.824210  -3.345070  37.809600   0.000173   0.001061  25.181200   0.000130   0.000609  40.368600  -2.469870  -2.901980  60.647200  -0.004488  -0.011029  40.391100   0.000361  -0.000839   1.333890   2.902110   1.634560   0.916873   0.204950  13.965100  -6.277260  -3.382780   6.314150  -0.000000   0.000000  -0.000000   1.586730   3.188630  -9.640310   0.004363   0.992139  -8.403510  -9.546440   0.576583   1.760380   0.000000   0.000000   0.000000
 -0.449492  90.024200  -0.358573  -0.961827  -1.104190  -1.022650  -0.444840   0.817270  -0.468012  -0.883357   1.638110  -0.929844  16.330600   4.321400  -1.265510  27.115800   6.653940  -2.882080  -1.688970   0.451668   5.052120 -78.115100  15.697600   1.622470  -2.739200  -6.814010 -15.330000  14.408300   4.256920   8.937210  43.060400  33.623000 -70.033100 -23.846700  -0.024442   0.050996  -6.923360  -0.015279   0.028502 -30.921100   7.721230 -12.639700 -26.000000   0.016392  -0.008173 -18.199900   0.012683  -0.000090 -28.615600   2.817040  -5.148070 -40.074200  -0.127213   0.032759 -26.689500  -0.085507  -0.019116 -27.365600   2.703730  -5.208440 -29.154600  -0.131997   0.050107 -19.417000  -0.094008  -0.004588 -28.516900   1.482900  -2.726450 -42.828300  -0.134955  -0.015286 -28.523700  -0.074064  -0.051854   7.896520   1.543210   2.517060  72.651400   7.673550  -2.392210   1.141360  -1.955190  14.386900 -17.893400 -13.826200   4.138740 -37.694000  34.545100  71.099700  32.209000   0.001601  -0.000941  11.104500   0.002300   0.002091  32.698300   1.683090   2.619860  26.784800  -0.000372  -0.000701  18.749300  -0.001827  -0.000000  28.192700  -1.263150  -2.354900  33.554000  -0.002878  -0.002432  22.347000  -0.007324  -0.004672  28.584800  -1.876780  -3.439650  38.014600   0.000083   0.001124  25.317700   0.000069   0.000618  40.499900  -2.547070  -2.978310  60.849400  -0.004590  -0.011181  40.525800   0.000270  -0.000851   1.330080   2.897540   1.635710   0.895131   0.223143  13.989500  -6.272120  -3.411360   6.334140  -0.000000   0.000000   0.000000   1.574510   3.198640  -9.614500  -0.001784   0.974570  -8.403110  -9.536310   0.574760   1.779520  -0.000000   0.000000  -0.000000
